<svg id="visual" viewBox="0 0 900 600" width="900" height="600" xmlns="http://www.w3.org/2000/svg" xmlns:xlink="http://www.w3.org/1999/xlink" version="1.1"><rect x="0" y="0" width="900" height="600" fill="#d3d3d3"></rect><defs><linearGradient id="grad1_0" x1="33.3%" y1="0%" x2="100%" y2="100%"><stop offset="20%" stop-color="#d3d3d3" stop-opacity="1"></stop><stop offset="80%" stop-color="#d3d3d3" stop-opacity="1"></stop></linearGradient></defs><defs><linearGradient id="grad2_0" x1="0%" y1="0%" x2="66.7%" y2="100%"><stop offset="20%" stop-color="#d3d3d3" stop-opacity="1"></stop><stop offset="80%" stop-color="#d3d3d3" stop-opacity="1"></stop></linearGradient></defs><g transform="translate(900, 0)"><path d="M0 540.8C-94 526.3 -188 511.9 -270.4 468.4C-352.8 424.9 -423.7 352.4 -466.8 269.5C-509.9 186.6 -525.4 93.3 -540.8 0L0 0Z" fill="#222222"></path></g><g transform="translate(0, 600)"><path d="M0 -540.8C95.8 -527.4 191.7 -514 270.4 -468.4C349.1 -422.8 410.7 -344.9 452.9 -261.5C495.1 -178.1 518 -89 540.8 0L0 0Z" fill="#222222"></path></g></svg>