<svg id="visual" viewBox="0 0 900 600" width="900" height="600" xmlns="http://www.w3.org/2000/svg" xmlns:xlink="http://www.w3.org/1999/xlink" version="1.1"><rect x="0" y="0" width="900" height="600" fill="#d3d3d3"></rect><defs><linearGradient id="grad1_0" x1="33.3%" y1="0%" x2="100%" y2="100%"><stop offset="20%" stop-color="#d3d3d3" stop-opacity="1"></stop><stop offset="80%" stop-color="#d3d3d3" stop-opacity="1"></stop></linearGradient></defs><defs><linearGradient id="grad2_0" x1="0%" y1="0%" x2="66.7%" y2="100%"><stop offset="20%" stop-color="#d3d3d3" stop-opacity="1"></stop><stop offset="80%" stop-color="#d3d3d3" stop-opacity="1"></stop></linearGradient></defs><g transform="translate(900, 0)"><path d="M0 486.7C-61.4 477.3 -122.8 467.9 -185.2 447.2C-247.6 426.4 -311 394.4 -344.2 344.2C-377.4 294 -380.4 225.7 -399.1 165.3C-417.8 104.9 -452.3 52.5 -486.7 0L0 0Z" fill="#222222"></path></g><g transform="translate(0, 600)"><path d="M0 -486.7C52.5 -456.8 105.1 -426.9 169.5 -409.3C234 -391.6 310.3 -386.2 344.2 -344.2C378.1 -302.1 369.5 -223.4 386.2 -160C402.9 -96.5 444.8 -48.2 486.7 0L0 0Z" fill="#222222"></path></g></svg>